<?xml version="1.0"?>
<svg xmlns="http://www.w3.org/2000/svg" xmlns:xlink="http://www.w3.org/1999/xlink" version="1.1" id="Capa_1" x="0px" y="0px" width="512px" height="512px" viewBox="0 0 35.334 35.334" style="enable-background:new 0 0 35.334 35.334;" xml:space="preserve" class=""><g transform="matrix(0.747172 0 0 0.747172 4.46671 4.46671)"><g>
	<path d="M35.333,33.334c0,1.104-0.896,2-2,2H2.001c-1.104,0-2-0.896-2-2V2c0-1.104,0.896-2,2-2s2,0.896,2,2v29.334h3.514   c-0.611-0.456-1.014-1.178-1.014-2V18.907c0-1.382,1.119-2.5,2.5-2.5s2.5,1.118,2.5,2.5v10.427c0,0.822-0.4,1.544-1.014,2h4.025   c-0.611-0.456-1.014-1.178-1.014-2V14.167c0-1.381,1.119-2.5,2.5-2.5s2.5,1.119,2.5,2.5v15.167c0,0.822-0.399,1.544-1.014,2h4.029   c-0.613-0.456-1.015-1.178-1.015-2V18.907c0-1.382,1.119-2.5,2.5-2.5s2.5,1.118,2.5,2.5v10.427c0,0.822-0.401,1.544-1.015,2h4.026   c-0.612-0.456-1.015-1.178-1.015-2V14.167c0-1.381,1.119-2.5,2.5-2.5s2.5,1.119,2.5,2.5v15.167c0,0.822-0.401,1.544-1.016,2h1.848   C34.438,31.334,35.333,32.229,35.333,33.334z" data-original="#000000" class="active-path" data-old_color="#000000" fill="#FFFFFF"/>
</g></g> </svg>
