<svg xmlns="http://www.w3.org/2000/svg" width="13.129" height="17.021" viewBox="0 0 13.129 17.021">
  <path id="Path_462" data-name="Path 462" d="M11.541,6.24H10.49v-2.3a3.936,3.936,0,1,0-7.873,0v2.3H1.566A1.567,1.567,0,0,0,0,7.806v7.649a1.567,1.567,0,0,0,1.566,1.566h10a1.567,1.567,0,0,0,1.566-1.566V7.8A1.59,1.59,0,0,0,11.541,6.24Zm-8.03,0v-2.3a3.042,3.042,0,0,1,6.084,0v2.3H3.512ZM.895,7.806a.679.679,0,0,1,.671-.671h10a.679.679,0,0,1,.671.671v7.537h-.022v.112a.679.679,0,0,1-.671.671H1.566a.679.679,0,0,1-.671-.671Z" fill="#57667f"/>
</svg>
