<svg xmlns="http://www.w3.org/2000/svg" width="78.204" height="30.368" viewBox="0 0 78.204 30.368">
  <g id="Group_14" data-name="Group 14" transform="translate(0.002)">
    <path id="Path_1" data-name="Path 1" d="M332.323,101.535a15.455,15.455,0,0,1-1.589.4,3.885,3.885,0,0,1-4.3-3.316,9.9,9.9,0,0,1-.06-1.12c-.007-1.377,0-2.754,0-4.132a.979.979,0,0,1,.9-1.036.94.94,0,0,1,1.02.9,3.029,3.029,0,0,1,.019.4q-.009,2.214-.021,4.428a2.029,2.029,0,0,0,1.877,2.026,1.97,1.97,0,0,0,2.115-1.754,10.725,10.725,0,0,0,.032-1.122q.007-7.073.007-14.146a.948.948,0,0,1,.519-.921.9.9,0,0,1,1,.085.968.968,0,0,1,.393.86q-.009,3.883-.005,7.767,0,5.949,0,11.9a4.016,4.016,0,0,1-7.577,1.91.96.96,0,0,1,.372-1.338.944.944,0,0,1,1.309.454,2.116,2.116,0,0,0,3.991-1.062C332.324,102.313,332.323,101.905,332.323,101.535Z" transform="translate(-304.761 -76.599)" fill="#fff"/>
    <path id="Path_2" data-name="Path 2" d="M473.76,211.576c0-.679,0-1.292,0-1.9a.956.956,0,1,1,1.907-.009c0,3.57.009,7.139,0,10.709a4.874,4.874,0,0,1-9.139,2.3,1.007,1.007,0,0,1,0-1.23.957.957,0,0,1,1.618.211,3.022,3.022,0,0,0,1.552,1.418,2.976,2.976,0,0,0,4.054-2.566c.019-.372,0-.745,0-1.185a4.885,4.885,0,0,1-4.487.752,4.77,4.77,0,0,1-2.473-1.847,4.849,4.849,0,0,1,3.326-7.589A4.959,4.959,0,0,1,473.76,211.576Zm-2.971,6.824a2.952,2.952,0,1,0-2.941-2.975A2.936,2.936,0,0,0,470.789,218.4Z" transform="translate(-435.063 -194.823)" fill="#fff"/>
    <path id="Path_3" data-name="Path 3" d="M258.36,0a12.258,12.258,0,0,1,10.392,6.445,11.5,11.5,0,0,1,1.471,4.344,1.033,1.033,0,1,1-2.042.259,10.345,10.345,0,0,0-7.008-8.378A10.031,10.031,0,0,0,250.48,5.55a10.565,10.565,0,0,0-2.606,5.5,1.035,1.035,0,1,1-2.032-.31A12.5,12.5,0,0,1,258.36,0Z" transform="translate(-229.546)" fill="#fff"/>
    <path id="Path_4" data-name="Path 4" d="M1.915,248v.747c0,1.344,0,2.688,0,4.032a.957.957,0,0,1-1.793.493,1.051,1.051,0,0,1-.111-.472c-.006-2.963-.022-5.927,0-8.89a4.874,4.874,0,0,1,9.431-1.522,4.9,4.9,0,0,1-3.823,6.53A5.088,5.088,0,0,1,1.915,248Zm0-3.883a2.954,2.954,0,1,0,2.962-2.948A2.945,2.945,0,0,0,1.915,244.12Z" transform="translate(0 -223.396)" fill="#fff"/>
    <path id="Path_5" data-name="Path 5" d="M762.654,247.2a4.87,4.87,0,0,1-4.8.524,4.633,4.633,0,0,1-2.954-4.467,4.874,4.874,0,0,1,3.781-4.7,4.72,4.72,0,0,1,5.823,3.9,21.705,21.705,0,0,1,.087,2.5c.013.693.005,1.387,0,2.081a.928.928,0,0,1-.812,1.06,1,1,0,0,1-1.068-.742C762.7,247.311,762.681,247.27,762.654,247.2Zm-2.845-1.017a2.8,2.8,0,0,0,2.879-2.839,2.921,2.921,0,0,0-2.854-3.016,3.006,3.006,0,0,0-3.012,2.991A2.882,2.882,0,0,0,759.809,246.18Z" transform="translate(-704.908 -222.62)" fill="#fff"/>
    <path id="Path_6" data-name="Path 6" d="M166.506,247.094a5.034,5.034,0,0,1-6.458-.565,4.886,4.886,0,0,1,2.323-8.029,4.744,4.744,0,0,1,5.991,3.859,8.8,8.8,0,0,1,.072,1.281c.009,1.1,0,2.2,0,3.305A.941.941,0,0,1,167.65,248a.978.978,0,0,1-1.087-.8A.707.707,0,0,0,166.506,247.094Zm-2.838-.973a2.794,2.794,0,0,0,2.87-2.789,2.929,2.929,0,0,0-2.863-3.076,3.035,3.035,0,0,0-3.014,3A2.9,2.9,0,0,0,163.668,246.12Z" transform="translate(-148.232 -222.542)" fill="#fff"/>
    <path id="Path_7" data-name="Path 7" d="M928.406,244.6c0,.671,0,1.344,0,2.015a.984.984,0,1,1-1.957-.012c0-1.277,0-2.555.008-3.832a4.879,4.879,0,0,1,9.716-.589,5.21,5.21,0,0,1,.048.658q.007,1.9,0,3.8a.986.986,0,0,1-.961,1.048.968.968,0,0,1-.96-1.042c-.007-1.244,0-2.489,0-3.734a2.948,2.948,0,0,0-5.89-.261c-.021.649,0,1.3,0,1.949Z" transform="translate(-865.098 -222.178)" fill="#fff"/>
    <path id="Path_8" data-name="Path 8" d="M1084.9,172.293v.4q0,3.189,0,6.377a.984.984,0,0,1-.792,1,.939.939,0,0,1-1.04-.58,1.546,1.546,0,0,1-.079-.548q-.008-3.122,0-6.245v-.431c-.476,0-.914.01-1.352,0a.966.966,0,0,1-.946-1.289.918.918,0,0,1,.887-.624c.342-.015.684,0,1.026-.007.119,0,.236-.011.385-.019v-.683c0-1.046,0-2.093,0-3.139a.919.919,0,0,1,.934-.979.934.934,0,0,1,.976.979c.005,1.146,0,2.291,0,3.436v.406h1.01c.121,0,.243,0,.364,0a1,1,0,0,1,1,.948,1.011,1.011,0,0,1-.989.965c-.374.018-.75,0-1.125.006C1085.083,172.273,1085.009,172.284,1084.9,172.293Z" transform="translate(-1009.07 -154.567)" fill="#fff"/>
    <path id="Path_9" data-name="Path 9" d="M706.423,172.9q0-3.123,0-6.245a.93.93,0,0,1,.6-.938.918.918,0,0,1,1.041.195,1.083,1.083,0,0,1,.286.848q0,3.5,0,7.005c0,1.7.013,3.392.017,5.088a3.034,3.034,0,0,1-.028.46.943.943,0,0,1-1.02.868.965.965,0,0,1-.9-1c-.006-1.641,0-3.282,0-4.924V172.9A0,0,0,0,0,706.423,172.9Z" transform="translate(-659.641 -154.664)" fill="#fff"/>
    <path id="Path_10" data-name="Path 10" d="M644.622,243.159c0-1.266,0-2.532,0-3.8a.935.935,0,0,1,.62-.956.9.9,0,0,1,1.048.264,1.279,1.279,0,0,1,.248.691q.026,3.846.007,7.693a.952.952,0,0,1-.977,1.021.965.965,0,0,1-.945-1.053C644.618,245.734,644.622,244.446,644.622,243.159Z" transform="translate(-601.934 -222.557)" fill="#fff"/>
    <path id="Path_11" data-name="Path 11" d="M645.641,181.933a.947.947,0,0,1-.974-.948,1,1,0,0,1,.958-.956.971.971,0,0,1,.964.972A.917.917,0,0,1,645.641,181.933Z" transform="translate(-601.978 -168.107)" fill="#fff"/>
  </g>
</svg>
