<svg xmlns="http://www.w3.org/2000/svg" width="154.735" height="60.086" viewBox="0 0 154.735 60.086">
  <g id="Group_1" data-name="Group 1" transform="translate(0.002)">
    <path id="Path_1" data-name="Path 1" d="M338.146,120.62a30.579,30.579,0,0,1-3.145.8,7.687,7.687,0,0,1-8.5-6.561,19.562,19.562,0,0,1-.119-2.217c-.013-2.724-.009-5.449,0-8.175a1.938,1.938,0,0,1,1.779-2.049,1.861,1.861,0,0,1,2.018,1.786,5.988,5.988,0,0,1,.037.782q-.018,4.381-.042,8.761a4.014,4.014,0,0,0,3.715,4.009,3.9,3.9,0,0,0,4.185-3.47,21.234,21.234,0,0,0,.064-2.22q.014-13.994.014-27.989a1.875,1.875,0,0,1,1.026-1.821,1.778,1.778,0,0,1,1.972.168,1.915,1.915,0,0,1,.778,1.7q-.018,7.683-.01,15.367,0,11.771,0,23.542a7.946,7.946,0,0,1-14.992,3.779,1.9,1.9,0,0,1,.735-2.647,1.868,1.868,0,0,1,2.59.9,4.186,4.186,0,0,0,7.9-2.1C338.148,122.16,338.146,121.354,338.146,120.62Z" transform="translate(-283.61 -71.283)" fill="#8dc63f"/>
    <path id="Path_2" data-name="Path 2" d="M481.437,214.451c0-1.343,0-2.556,0-3.768a1.892,1.892,0,1,1,3.774-.017c0,7.064.018,14.126-.005,21.19a9.643,9.643,0,0,1-18.083,4.548,1.992,1.992,0,0,1,.009-2.433,1.893,1.893,0,0,1,3.2.417,5.98,5.98,0,0,0,3.07,2.807,5.888,5.888,0,0,0,8.022-5.077c.038-.735.005-1.474.005-2.344a9.666,9.666,0,0,1-8.877,1.488,9.438,9.438,0,0,1-4.893-3.654,9.6,9.6,0,0,1,6.58-15.016A9.812,9.812,0,0,1,481.437,214.451Zm-5.878,13.5a5.841,5.841,0,1,0-5.819-5.886A5.808,5.808,0,0,0,475.559,227.952Z" transform="translate(-404.869 -181.302)" fill="#8dc63f"/>
    <path id="Path_3" data-name="Path 3" d="M270.629,0c8.711.435,15.823,4.641,20.562,12.753a22.748,22.748,0,0,1,2.91,8.594,2.044,2.044,0,1,1-4.041.512c-1.517-8.109-6.053-13.764-13.865-16.578a19.848,19.848,0,0,0-21.157,5.7,20.905,20.905,0,0,0-5.156,10.874,2.048,2.048,0,1,1-4.021-.613A24.739,24.739,0,0,1,270.629,0Z" transform="translate(-213.615)" fill="#8dc63f"/>
    <path id="Path_4" data-name="Path 4" d="M3.792,256.579v1.478c0,2.66.005,5.318-.005,7.978a1.894,1.894,0,0,1-3.548.975,2.08,2.08,0,0,1-.219-.934c-.012-5.864-.043-11.727,0-17.591a9.643,9.643,0,0,1,18.66-3.012,9.7,9.7,0,0,1-7.564,12.919A10.068,10.068,0,0,1,3.792,256.579Zm0-7.684a5.845,5.845,0,1,0,5.861-5.833A5.827,5.827,0,0,0,3.792,248.9Z" transform="translate(0 -207.892)" fill="#8dc63f"/>
    <path id="Path_5" data-name="Path 5" d="M770.244,255.8c-3.007,2.165-6.2,2.241-9.5,1.036a9.166,9.166,0,0,1-5.845-8.839,9.645,9.645,0,0,1,7.48-9.307A9.34,9.34,0,0,1,773.9,246.4a42.951,42.951,0,0,1,.173,4.953c.025,1.372.01,2.745,0,4.117a1.836,1.836,0,0,1-1.606,2.1,1.984,1.984,0,0,1-2.112-1.469C770.329,256.023,770.3,255.943,770.244,255.8Zm-5.629-2.011a5.533,5.533,0,0,0,5.7-5.617,5.779,5.779,0,0,0-5.647-5.967,5.947,5.947,0,0,0-5.96,5.919A5.7,5.7,0,0,0,764.615,253.786Z" transform="translate(-655.986 -207.17)" fill="#8dc63f"/>
    <path id="Path_6" data-name="Path 6" d="M174.1,255.675c-3.707,2.96-9.67,2.132-12.778-1.118a9.668,9.668,0,0,1,4.6-15.887,9.386,9.386,0,0,1,11.854,7.635,17.4,17.4,0,0,1,.143,2.535c.017,2.18,0,4.359,0,6.54a1.862,1.862,0,0,1-1.551,2.085,1.936,1.936,0,0,1-2.151-1.576A1.4,1.4,0,0,0,174.1,255.675Zm-5.615-1.926a5.529,5.529,0,0,0,5.679-5.519,5.8,5.8,0,0,0-5.666-6.086,6.006,6.006,0,0,0-5.963,5.945A5.737,5.737,0,0,0,168.489,253.749Z" transform="translate(-137.944 -207.097)" fill="#8dc63f"/>
    <path id="Path_7" data-name="Path 7" d="M930.324,251.118c0,1.329.006,2.659,0,3.987a1.946,1.946,0,1,1-3.872-.024c0-2.528-.009-5.055.016-7.583a9.653,9.653,0,0,1,19.223-1.166,10.311,10.311,0,0,1,.094,1.3q.014,3.758,0,7.517a1.951,1.951,0,0,1-1.9,2.074,1.916,1.916,0,0,1-1.9-2.061c-.014-2.462.009-4.924-.009-7.387a5.833,5.833,0,0,0-11.654-.516c-.041,1.284-.007,2.571-.007,3.856Z" transform="translate(-805.058 -206.758)" fill="#8dc63f"/>
    <path id="Path_8" data-name="Path 8" d="M1089.079,178.911v.8q0,6.309,0,12.618a1.947,1.947,0,0,1-1.567,1.981,1.858,1.858,0,0,1-2.058-1.148,3.058,3.058,0,0,1-.156-1.084q-.016-6.177-.007-12.356v-.853c-.942,0-1.808.02-2.674,0a1.911,1.911,0,0,1-1.871-2.551,1.816,1.816,0,0,1,1.755-1.234c.676-.029,1.354-.007,2.03-.013.235,0,.468-.022.761-.038v-1.352c0-2.07,0-4.14.008-6.211a1.818,1.818,0,0,1,1.849-1.937,1.849,1.849,0,0,1,1.931,1.938c.011,2.267,0,4.532,0,6.8v.8h2c.24,0,.481-.008.721.005a1.977,1.977,0,0,1,1.972,1.876,2,2,0,0,1-1.956,1.909c-.74.035-1.485.008-2.226.012C1089.442,178.873,1089.294,178.894,1089.079,178.911Z" transform="translate(-939.039 -143.84)" fill="#8dc63f"/>
    <path id="Path_9" data-name="Path 9" d="M706.426,180.007q0-6.179,0-12.357a1.84,1.84,0,0,1,1.187-1.855,1.816,1.816,0,0,1,2.06.385,2.144,2.144,0,0,1,.566,1.677q-.008,6.93,0,13.86c.005,3.356.026,6.711.034,10.067a6.034,6.034,0,0,1-.056.911,1.866,1.866,0,0,1-2.018,1.718,1.91,1.91,0,0,1-1.773-1.986c-.012-3.247-.008-6.494-.009-9.742V180A.007.007,0,0,0,706.426,180.007Z" transform="translate(-613.861 -143.93)" fill="#8dc63f"/>
    <path id="Path_10" data-name="Path 10" d="M644.623,247.874c0-2.5-.008-5.009,0-7.513a1.85,1.85,0,0,1,1.228-1.892,1.773,1.773,0,0,1,2.073.522,2.532,2.532,0,0,1,.49,1.368q.051,7.61.013,15.222a1.884,1.884,0,0,1-1.934,2.02,1.909,1.909,0,0,1-1.87-2.083C644.615,252.97,644.623,250.421,644.623,247.874Z" transform="translate(-560.159 -207.111)" fill="#8dc63f"/>
    <path id="Path_11" data-name="Path 11" d="M646.595,183.8a1.873,1.873,0,0,1-1.927-1.876,1.982,1.982,0,0,1,1.895-1.891,1.921,1.921,0,0,1,1.908,1.923A1.814,1.814,0,0,1,646.595,183.8Z" transform="translate(-560.199 -156.44)" fill="#8dc63f"/>
  </g>
</svg>
